<svg id="visual" viewBox="0 0 960 150" width="960" height="150" xmlns="http://www.w3.org/2000/svg" xmlns:xlink="http://www.w3.org/1999/xlink" version="1.1"><rect x="0" y="0" width="960" height="150" fill="#F2F2F2"></rect><path d="M0 88L20 91.8C40 95.7 80 103.3 120 103.2C160 103 200 95 240 89.5C280 84 320 81 360 86.7C400 92.3 440 106.7 480 112C520 117.3 560 113.7 600 106.8C640 100 680 90 720 88C760 86 800 92 840 92.2C880 92.3 920 86.7 940 83.8L960 81L960 0L940 0C920 0 880 0 840 0C800 0 760 0 720 0C680 0 640 0 600 0C560 0 520 0 480 0C440 0 400 0 360 0C320 0 280 0 240 0C200 0 160 0 120 0C80 0 40 0 20 0L0 0Z" fill="#f2f2f2"></path><path d="M0 33L20 45.3C40 57.7 80 82.3 120 91.2C160 100 200 93 240 86C280 79 320 72 360 66.7C400 61.3 440 57.7 480 65C520 72.3 560 90.7 600 100C640 109.3 680 109.7 720 102.8C760 96 800 82 840 77.8C880 73.7 920 79.3 940 82.2L960 85L960 0L940 0C920 0 880 0 840 0C800 0 760 0 720 0C680 0 640 0 600 0C560 0 520 0 480 0C440 0 400 0 360 0C320 0 280 0 240 0C200 0 160 0 120 0C80 0 40 0 20 0L0 0Z" fill="#bec5c9"></path><path d="M0 86L20 85.3C40 84.7 80 83.3 120 74.3C160 65.3 200 48.7 240 39C280 29.3 320 26.7 360 26.2C400 25.7 440 27.3 480 32.5C520 37.7 560 46.3 600 50.8C640 55.3 680 55.7 720 54.5C760 53.3 800 50.7 840 45.8C880 41 920 34 940 30.5L960 27L960 0L940 0C920 0 880 0 840 0C800 0 760 0 720 0C680 0 640 0 600 0C560 0 520 0 480 0C440 0 400 0 360 0C320 0 280 0 240 0C200 0 160 0 120 0C80 0 40 0 20 0L0 0Z" fill="#8d99a2"></path><path d="M0 12L20 17.3C40 22.7 80 33.3 120 39.2C160 45 200 46 240 42C280 38 320 29 360 26.7C400 24.3 440 28.7 480 33.2C520 37.7 560 42.3 600 39.7C640 37 680 27 720 26.3C760 25.7 800 34.3 840 33.5C880 32.7 920 22.3 940 17.2L960 12L960 0L940 0C920 0 880 0 840 0C800 0 760 0 720 0C680 0 640 0 600 0C560 0 520 0 480 0C440 0 400 0 360 0C320 0 280 0 240 0C200 0 160 0 120 0C80 0 40 0 20 0L0 0Z" fill="#5d6f7c"></path><path d="M0 7L20 6.3C40 5.7 80 4.3 120 7C160 9.7 200 16.3 240 16.7C280 17 320 11 360 8.5C400 6 440 7 480 8C520 9 560 10 600 12.5C640 15 680 19 720 20.5C760 22 800 21 840 24C880 27 920 34 940 37.5L960 41L960 0L940 0C920 0 880 0 840 0C800 0 760 0 720 0C680 0 640 0 600 0C560 0 520 0 480 0C440 0 400 0 360 0C320 0 280 0 240 0C200 0 160 0 120 0C80 0 40 0 20 0L0 0Z" fill="#2f4858"></path></svg>