<svg id="visual" viewBox="0 0 960 145" width="960" height="145" xmlns="http://www.w3.org/2000/svg" xmlns:xlink="http://www.w3.org/1999/xlink" version="1.1"><rect x="0" y="0" width="960" height="145" fill="#f2f2f2"></rect><path d="M0 68L9.3 63.5C18.7 59 37.3 50 56.2 51.8C75 53.7 94 66.3 112.8 67.2C131.7 68 150.3 57 169.2 47.8C188 38.7 207 31.3 225.8 32.8C244.7 34.3 263.3 44.7 282.2 49.7C301 54.7 320 54.3 338.8 49.5C357.7 44.7 376.3 35.3 395.2 37.2C414 39 433 52 451.8 58.3C470.7 64.7 489.3 64.3 508.2 60.5C527 56.7 546 49.3 564.8 41.3C583.7 33.3 602.3 24.7 621.2 27C640 29.3 659 42.7 677.8 53.7C696.7 64.7 715.3 73.3 734.2 77.8C753 82.3 772 82.7 790.8 73C809.7 63.3 828.3 43.7 847.2 42.7C866 41.7 885 59.3 903.8 67.3C922.7 75.3 941.3 73.7 950.7 72.8L960 72L960 146L950.7 146C941.3 146 922.7 146 903.8 146C885 146 866 146 847.2 146C828.3 146 809.7 146 790.8 146C772 146 753 146 734.2 146C715.3 146 696.7 146 677.8 146C659 146 640 146 621.2 146C602.3 146 583.7 146 564.8 146C546 146 527 146 508.2 146C489.3 146 470.7 146 451.8 146C433 146 414 146 395.2 146C376.3 146 357.7 146 338.8 146C320 146 301 146 282.2 146C263.3 146 244.7 146 225.8 146C207 146 188 146 169.2 146C150.3 146 131.7 146 112.8 146C94 146 75 146 56.2 146C37.3 146 18.7 146 9.3 146L0 146Z" fill="#588292"></path><path d="M0 50L9.3 52.8C18.7 55.7 37.3 61.3 56.2 65.7C75 70 94 73 112.8 76.2C131.7 79.3 150.3 82.7 169.2 82C188 81.3 207 76.7 225.8 71.7C244.7 66.7 263.3 61.3 282.2 60C301 58.7 320 61.3 338.8 69.5C357.7 77.7 376.3 91.3 395.2 91.8C414 92.3 433 79.7 451.8 80.7C470.7 81.7 489.3 96.3 508.2 96.2C527 96 546 81 564.8 72.2C583.7 63.3 602.3 60.7 621.2 58C640 55.3 659 52.7 677.8 54.5C696.7 56.3 715.3 62.7 734.2 70C753 77.3 772 85.7 790.8 82.3C809.7 79 828.3 64 847.2 66.2C866 68.3 885 87.7 903.8 89C922.7 90.3 941.3 73.7 950.7 65.3L960 57L960 146L950.7 146C941.3 146 922.7 146 903.8 146C885 146 866 146 847.2 146C828.3 146 809.7 146 790.8 146C772 146 753 146 734.2 146C715.3 146 696.7 146 677.8 146C659 146 640 146 621.2 146C602.3 146 583.7 146 564.8 146C546 146 527 146 508.2 146C489.3 146 470.7 146 451.8 146C433 146 414 146 395.2 146C376.3 146 357.7 146 338.8 146C320 146 301 146 282.2 146C263.3 146 244.7 146 225.8 146C207 146 188 146 169.2 146C150.3 146 131.7 146 112.8 146C94 146 75 146 56.2 146C37.3 146 18.7 146 9.3 146L0 146Z" fill="#456d81"></path><path d="M0 104L9.3 100.8C18.7 97.7 37.3 91.3 56.2 90.7C75 90 94 95 112.8 101.3C131.7 107.7 150.3 115.3 169.2 119.3C188 123.3 207 123.7 225.8 122.7C244.7 121.7 263.3 119.3 282.2 120C301 120.7 320 124.3 338.8 122.2C357.7 120 376.3 112 395.2 111.7C414 111.3 433 118.7 451.8 119C470.7 119.3 489.3 112.7 508.2 112C527 111.3 546 116.7 564.8 119.3C583.7 122 602.3 122 621.2 120.2C640 118.3 659 114.7 677.8 108.7C696.7 102.7 715.3 94.3 734.2 97.3C753 100.3 772 114.7 790.8 119C809.7 123.3 828.3 117.7 847.2 117.2C866 116.7 885 121.3 903.8 122C922.7 122.7 941.3 119.3 950.7 117.7L960 116L960 146L950.7 146C941.3 146 922.7 146 903.8 146C885 146 866 146 847.2 146C828.3 146 809.7 146 790.8 146C772 146 753 146 734.2 146C715.3 146 696.7 146 677.8 146C659 146 640 146 621.2 146C602.3 146 583.7 146 564.8 146C546 146 527 146 508.2 146C489.3 146 470.7 146 451.8 146C433 146 414 146 395.2 146C376.3 146 357.7 146 338.8 146C320 146 301 146 282.2 146C263.3 146 244.7 146 225.8 146C207 146 188 146 169.2 146C150.3 146 131.7 146 112.8 146C94 146 75 146 56.2 146C37.3 146 18.7 146 9.3 146L0 146Z" fill="#345870"></path></svg>