<svg id="visual" viewBox="0 0 960 145" width="960" height="145" xmlns="http://www.w3.org/2000/svg" xmlns:xlink="http://www.w3.org/1999/xlink" version="1.1"><rect x="0" y="0" width="960" height="145" fill="#f2f2f2"></rect><path d="M0 68L14.5 64.7C29 61.3 58 54.7 87.2 51C116.3 47.3 145.7 46.7 174.8 53.7C204 60.7 233 75.3 262 80.7C291 86 320 82 349 79.3C378 76.7 407 75.3 436.2 71.7C465.3 68 494.7 62 523.8 56C553 50 582 44 611 49.5C640 55 669 72 698 74C727 76 756 63 785.2 57.5C814.3 52 843.7 54 872.8 56.7C902 59.3 931 62.7 945.5 64.3L960 66L960 0L945.5 0C931 0 902 0 872.8 0C843.7 0 814.3 0 785.2 0C756 0 727 0 698 0C669 0 640 0 611 0C582 0 553 0 523.8 0C494.7 0 465.3 0 436.2 0C407 0 378 0 349 0C320 0 291 0 262 0C233 0 204 0 174.8 0C145.7 0 116.3 0 87.2 0C58 0 29 0 14.5 0L0 0Z" fill="#588292"></path><path d="M0 46L14.5 44.8C29 43.7 58 41.3 87.2 40.8C116.3 40.3 145.7 41.7 174.8 41C204 40.3 233 37.7 262 35.3C291 33 320 31 349 38C378 45 407 61 436.2 70.3C465.3 79.7 494.7 82.3 523.8 83.3C553 84.3 582 83.7 611 73.7C640 63.7 669 44.3 698 35.2C727 26 756 27 785.2 33.2C814.3 39.3 843.7 50.7 872.8 57.3C902 64 931 66 945.5 67L960 68L960 0L945.5 0C931 0 902 0 872.8 0C843.7 0 814.3 0 785.2 0C756 0 727 0 698 0C669 0 640 0 611 0C582 0 553 0 523.8 0C494.7 0 465.3 0 436.2 0C407 0 378 0 349 0C320 0 291 0 262 0C233 0 204 0 174.8 0C145.7 0 116.3 0 87.2 0C58 0 29 0 14.5 0L0 0Z" fill="#456d81"></path><path d="M0 20L14.5 22.8C29 25.7 58 31.3 87.2 31.8C116.3 32.3 145.7 27.7 174.8 24C204 20.3 233 17.7 262 21.3C291 25 320 35 349 39.7C378 44.3 407 43.7 436.2 39.2C465.3 34.7 494.7 26.3 523.8 22.7C553 19 582 20 611 23.3C640 26.7 669 32.3 698 35.5C727 38.7 756 39.3 785.2 41.2C814.3 43 843.7 46 872.8 46.7C902 47.3 931 45.7 945.5 44.8L960 44L960 0L945.5 0C931 0 902 0 872.8 0C843.7 0 814.3 0 785.2 0C756 0 727 0 698 0C669 0 640 0 611 0C582 0 553 0 523.8 0C494.7 0 465.3 0 436.2 0C407 0 378 0 349 0C320 0 291 0 262 0C233 0 204 0 174.8 0C145.7 0 116.3 0 87.2 0C58 0 29 0 14.5 0L0 0Z" fill="#345870"></path></svg>