<?xml version="1.0" encoding="iso-8859-1"?>
<!-- Generator: Adobe Illustrator 16.0.0, SVG Export Plug-In . SVG Version: 6.00 Build 0)  -->
<!DOCTYPE svg PUBLIC "-//W3C//DTD SVG 1.1//EN" "http://www.w3.org/Graphics/SVG/1.1/DTD/svg11.dtd">
<svg version="1.1" id="Capa_1" xmlns="http://www.w3.org/2000/svg" xmlns:xlink="http://www.w3.org/1999/xlink" x="0px" y="0px"
	 width="526.386px" height="526.386px" viewBox="0 0 526.386 526.386" style="enable-background:new 0 0 526.386 526.386;"
	 xml:space="preserve">
<g>
	<path d="M400.159,257.612c-3.1-7.3-15.3-4.9-16.5,2.4c-8,40.4-1.8,74.1-34.899,105.9c-26.301,25.7-66.101,32.4-101,31.2
		c-88.101-3.101-143.2-71-138.9-154.2c65.5,66.1,175,57.5,248.5,4.9c72.2-52,36.1-124.8-47.1-131c-45.9-3.7-236.2,19.6-179.9,104
		c37.9,57.5,190.3,28.2,222.2-23.3c3.1-4.9,1.2-12.9-3.7-14.7c-47.7-20.8-90-20.8-137.7,0c-12.899,5.5-1.8,25.1,11,19.6
		c36.101-15.9,67.9-17.7,102.8-4.9c-37.3,34.9-138.3,43.5-173.199,15.3c-39.8-33.7,49-59.4,66.7-64.3
		c33-8.6,70.399-14.7,104.699-7.3c88.101,19.6,46.5,79.6-9.8,107.7c-67.3,34.3-149.3,26.9-203.8-26.9c-6.7-6.7-15.9,3.1-10.4,10.4
		l0,0l0,0c-32.6,101,44.5,177.5,141.2,189.2C326.06,431.412,441.76,356.112,400.159,257.612z"/>
	<path d="M465.56,181.712c-33,0.6-45.3,39.2-44.101,66.1c0.601,8.6,12.2,8,12.9,0c1.8-17.1,11-44.1,31.2-45.3
		c22-1.2,31.2,34.3,30,50.2c-1.2,18.4-12.2,38.601-27.5,49c-18.4,12.9-19-11-26.3-22.6c-3.7-6.101-12.2-4.9-14.7,1.8
		c-9.2,26.9,15.899,56.3,43.5,45.3c28.2-11,44.7-44.7,47.1-72.8C520.659,223.912,499.26,181.112,465.56,181.712z"/>
	<path d="M427.659,356.712c-14.1-0.6-14.1,20.8,0,22c50.8,3.101,69.2,47.7,33.7,84.5c-16.5,17.101-44.7,23.3-67.3,28.8
		c-45.9,11-94.9,11.601-142,11.601c-40.4,0-80.8-0.601-121.2-6.7c-23.3-3.1-46.5-9.2-67.3-19.6c-57.5-26.9-21.4-91.801,29.4-102.801
		c8.6-1.8,6.699-15.3-1.801-15.3c-65.5,0-116.899,85.101-54.5,128.5c60,41.601,146.301,38.601,216,38.601
		c67.3,0,164,3.699,219.101-41.601C534.159,433.812,504.76,360.412,427.659,356.712z"/>
	<path d="M392.159,416.712c-71,56.3-203.8,49-277.199,0.601c-8.601-5.5-15.9,8-8,13.5c76.5,58.1,223.999,62.399,299.899,0.6
		C417.26,422.812,402.56,408.712,392.159,416.712z"/>
	<path d="M146.159,117.412c-12.899-20.8-20.199-44.1-34.3-64.3c-9.8-13.5-28.8-33-47.1-23.3c-5.5,3.1-4.9,10.4,0,14.1
		c6.7,4.9,14.7,5.5,20.8,11c7.3,6.1,12.2,14.7,17.1,22.6c10.4,16.5,19,34.3,31.2,49.6
		C139.359,133.912,150.46,124.812,146.159,117.412z"/>
	<path d="M256.26,29.312c-5.5-3.1-9.8-8-13.5-13.5c-1.8-2.4-3.101-4.9-4.9-7.3c-1.2-1.8-1.8-3.1-1.8-3.1c-1.2-1.8-1.8-3.1-3.7-4.3
		c-3.7-2.4-8-0.6-9.8,2.4c-6.7,8.6,3.1,22,12.9,31.2c-12.9,7.3-24.5,15.3-37.301,22c-4.3,2.4-5.5,8-3.1,12.2
		c3.7,6.7,7.3,12.2,14.1,15.9c5.5,3.1,12.9,1.8,18.4,5.5c5.5,3.7,12.2-4.9,7.3-9.2c-7.3-6.7-15.3-6.1-20.8-12.9
		c14.1-8,27.5-16.5,42.2-23.9C262.459,42.112,262.459,33.012,256.26,29.312z"/>
	<path d="M374.459,9.712c-5.5,3.1-9.8,8-15.3,11.6c-4.899,3.1-9.8,6.7-14.1,11c-9.2,10.4-9.2,25.1-6.101,38.6
		c-13.5,1.2-31.199,3.7-33.699,12.9c-1.2,3.7,1.199,7.3,4.899,8.6c2.4,0.6,4.3,0,6.7,0c1.2,0,1.8-0.6,2.4-1.2
		c2.399-0.6,5.5-0.6,8-1.2c8-1.2,15.3-1.8,23.3-1.8c6.1,0,9.8-5.5,8.6-11.6c-2.399-12.9-6.7-26.9,4.9-36.1c8-6.1,20.2-12.2,22-23.3
		C386.659,11.512,381.159,6.612,374.459,9.712z"/>
</g>
<g>
</g>
<g>
</g>
<g>
</g>
<g>
</g>
<g>
</g>
<g>
</g>
<g>
</g>
<g>
</g>
<g>
</g>
<g>
</g>
<g>
</g>
<g>
</g>
<g>
</g>
<g>
</g>
<g>
</g>
</svg>
